<svg xmlns="http://www.w3.org/2000/svg" xmlns:xlink="http://www.w3.org/1999/xlink" width="586" height="355.3" viewBox="0 0 586 355.3">
  <defs>
    <filter id="Rectangle_8777" x="268" y="79" width="240" height="79" filterUnits="userSpaceOnUse">
      <feOffset dy="4" input="SourceAlpha"/>
      <feGaussianBlur stdDeviation="4" result="blur"/>
      <feFlood flood-color="#002" flood-opacity="0.161"/>
      <feComposite operator="in" in2="blur"/>
      <feComposite in="SourceGraphic"/>
    </filter>
  </defs>
  <g id="Group_5696" data-name="Group 5696" transform="translate(-975 -2621)">
    <g id="Sao_Paulo" data-name="Sao Paulo" transform="translate(975 2621)">
      <path id="Path_38059" data-name="Path 38059" d="M93.9,79.4h-.5a.349.349,0,0,1-.1.2c-.2.5-.5,1.3-.3,1.6a16.4,16.4,0,0,0,2.8,3.4h0a9.439,9.439,0,0,0,3.3,2h0l.7.2c.1,0,.2.1.4.1h.2a2.92,2.92,0,0,0,.9.2,10.3,10.3,0,0,0-2.9-4h-.1V83c-.8-.7-1.6-1.4-2.4-2a15.582,15.582,0,0,1-2-1.6Z" fill="none"/>
      <path id="Path_38060" data-name="Path 38060" d="M331.4,280.8a18.664,18.664,0,0,1,3.2-1.5v-.5h.1a17.83,17.83,0,0,0-.9-3.3,3.827,3.827,0,0,0-1.1-1.6,3.113,3.113,0,0,0-1.9,1.1,27.576,27.576,0,0,0-3.8,9.2c.1-.1.3-.2.4-.3C328.7,282.9,330,281.8,331.4,280.8Z" fill="none"/>
      <path id="Path_38061" data-name="Path 38061" d="M193.4,278.3c.1-.1.3-.2.4-.3a.536.536,0,0,0-.4-.3,1.7,1.7,0,0,0-1,0,.349.349,0,0,0-.2.1C192.6,278,193,278.1,193.4,278.3Z" fill="none"/>
      <path id="Path_38062" data-name="Path 38062" d="M325.3,285.9a15.55,15.55,0,0,0-2.3.8c-2.4,1.4-3,2.8-2.4,5.8a14.727,14.727,0,0,1,1-2.2C322.8,288.8,324,287.3,325.3,285.9Z" fill="none"/>
      <path id="Path_38063" data-name="Path 38063" d="M11.1,53.7c1.1,1.8,1.5,3.3,1.3,4.4-.9,4.4,1.7,7.4,4.1,10C21.8,74,28.6,78.5,35,82.8c.4.3.8.5,1.2.8s.8.5,1.2.8c.5.3,1,.7,1.5,1a8.341,8.341,0,0,0,1.2.8c1.9,1.3,3.7,2.6,5.5,4a11.431,11.431,0,0,0,3.9,1.6c.9.3,1.9.6,2.8,1l1.5.7c4.9,2.2,9.9,4.5,13.8,8.4,4.3,4.4,9,8.4,13.6,12.3,1.2,1,2.4,2,3.6,3.1,2.3-.9,4.3-1.7,5.6-2.1,3.9-1.2,5.1-2.8,4.8-6.2-.2-2,.6-2.8,1.3-3.2h0l.7-.4h0v-.1c0-.1-.1-.2-.2-.3a2.181,2.181,0,0,1-.4-.5,3.052,3.052,0,0,1-1-3A6.679,6.679,0,0,1,97,99.2c1.6-1.7,2.8-2.8,3.7-3.7a20.79,20.79,0,0,0,2.1-2.1c0-.1.1-.1.1-.2a9.93,9.93,0,0,0-1.7-3.5,18.574,18.574,0,0,1-1.1-1.9,8.264,8.264,0,0,1-2.2-.8h0l-.1-.1h0a7.607,7.607,0,0,1-1.9-1.2h0l-.1-.1-.3-.3a9.266,9.266,0,0,1-1.4-1.4h0a17.682,17.682,0,0,1-1.6-2.2h0c-.4-.6-.1-1.6.2-2.4a.6.6,0,0,0,.1-.4l.1-.2.2-.1a1.81,1.81,0,0,1,1.6-.1l.1.1c.6.5,1.3,1.1,2,1.6.1.1.3.2.5.4h0l.5.4c.3.2.6.5.9.7a33.921,33.921,0,0,0-.1-7.8v-.1l2.2-10.3-1-7.7L101.1,45h0l.1-.1a.1.1,0,0,1,.1-.1h0c.5-.6,2.3-3,1.1-4.3h0c-1.6-2-11.1-14.8-11.9-15.8-.3-.3-2.3.1-3.7.4-3.1.6-6.6,1.3-7.1-.9l-.2-1c-.3-1.2-.6-2.4-.8-3.7,0-.2-.1-.4-.1-.6,0-.1-.1-.3-.1-.4-.1-.3-.1-.6-.2-.8a.367.367,0,0,0-.1-.3c0-.2-.1-.4-.1-.6s-.1-.4-.1-.6V16a22.821,22.821,0,0,1-.3-6.7h0a1.421,1.421,0,0,1,.2-.6V8.6c.1-.2.1-.4.2-.5V8c.1-.2.2-.3.3-.5.5-1.2.4-2.3,0-2.6-.5-.3-1.7,0-3.6,2.1A15.287,15.287,0,0,1,72,9.5c-.1,0-.1.1-.2.1h-.1A7.68,7.68,0,0,1,68.6,11a13.56,13.56,0,0,1-4.5,0c-.3,0-.7-.1-1.1-.1-3.1-.2-4.6-3-5.8-5.1-.6-1.1-1.2-2.1-1.7-2.3-1.6-.5-8.6.1-11.2.3l-.9.1h0L45.2,0H0V35.2c2.9,4.6,5.7,9.3,8.4,13.9C9.3,50.6,10.2,52.2,11.1,53.7Z" fill="#f7f7f9"/>
      <path id="Path_38064" data-name="Path 38064" d="M36.7,85.3c-.1,0-.1-.1-.2-.1a.31.31,0,0,1,.2.1Z" fill="#e0e0e4"/>
      <path id="Path_38065" data-name="Path 38065" d="M100.2,87c-.1,0-.3-.1-.4-.1l.4.1c.1,0,.2,0,.2.1h0Z" fill="#e0e0e4"/>
      <path id="Path_38066" data-name="Path 38066" d="M39.4,87.1Z" fill="#e0e0e4"/>
      <path id="Path_38067" data-name="Path 38067" d="M84.3,117.5c2.4-1,4.6-1.8,5.8-2.2,3.9-1.2,5.1-2.8,4.8-6.2-.2-2,.6-2.8,1.3-3.2h0c-.7.4-1.5,1.2-1.3,3.2.3,3.4-.9,5-4.8,6.2-1.2.4-3.2,1.2-5.6,2.1-1.2-1-2.4-2-3.6-3.1-4.6-3.9-9.3-7.9-13.6-12.3-3.9-3.9-8.9-6.2-13.8-8.4L52,92.9c-.9-.4-1.9-.7-2.8-1a11.431,11.431,0,0,1-3.9-1.6c-1.8-1.4-3.6-2.7-5.5-4,1.8,1.3,3.7,2.6,5.4,4h0l-.6.8h0a12.153,12.153,0,0,0,4.2,1.8,21.364,21.364,0,0,1,2.7.9l1.5.7c4.8,2.2,9.7,4.4,13.5,8.2,4.3,4.4,9.1,8.5,13.7,12.4,1.3,1.1,2.5,2.2,3.8,3.2l-.6-.5Z" fill="#e0e0e4"/>
      <path id="Path_38068" data-name="Path 38068" d="M63.9,11l-1-.1c-3.1-.2-4.6-3-5.8-5.1-.6-1.1-1.2-2.1-1.7-2.3-1.5-.5-8.5.1-11.1.3l-.9.1h0l.9-.1c2.6-.3,9.6-.8,11.1-.4.5.2,1.1,1.2,1.7,2.3,1.1,2.1,2.7,4.9,5.8,5.1a4.4,4.4,0,0,0,1,.2,16.908,16.908,0,0,0,4.5,0,22.457,22.457,0,0,1-4.5,0Z" fill="#e0e0e4"/>
      <path id="Path_38069" data-name="Path 38069" d="M102.2,40.4c-1-1.2-5-6.5-8.1-10.6A14.307,14.307,0,0,1,93,28.3c-1-1.3-1.8-2.4-2.3-3.1-.1-.1-.2-.2-.2-.3l-.2-.3a10.861,10.861,0,0,0-3.6.4c-3.1.6-6.6,1.3-7.1-.9-.1-.3-.2-.7-.3-1.1-.2-1-.5-2.2-.8-3.5.3,1.2.5,2.4.8,3.7l.2,1c.5,2.2,4,1.5,7.1.9,1.3-.3,3.3-.7,3.7-.4.7.9,10.2,13.7,11.9,15.7h0c1.1,1.3-.7,3.8-1.2,4.4C101.5,44.1,103.3,41.7,102.2,40.4Z" fill="#e0e0e4"/>
      <path id="Path_38070" data-name="Path 38070" d="M77.5,9.2a1.421,1.421,0,0,1,.2-.6C77.6,8.8,77.6,9,77.5,9.2Z" fill="#e0e0e4"/>
      <path id="Path_38071" data-name="Path 38071" d="M78,16.7c0-.2-.1-.4-.1-.6a1.268,1.268,0,0,0,.1.6Z" fill="#e0e0e4"/>
      <path id="Path_38072" data-name="Path 38072" d="M78.3,18.8c0-.1-.1-.3-.1-.4A.6.6,0,0,1,78.3,18.8Z" fill="#e0e0e4"/>
      <path id="Path_38073" data-name="Path 38073" d="M38.8,85.5c-.5-.3-1-.7-1.5-1A13.028,13.028,0,0,1,38.8,85.5Z" fill="#e0e0e4"/>
      <path id="Path_38074" data-name="Path 38074" d="M101,44.7l-.1.1-.1.1h0l.1-.1C100.9,44.9,101,44.8,101,44.7Z" fill="#e0e0e4"/>
      <path id="Path_38075" data-name="Path 38075" d="M97,105.4h0c0-.1-.1-.2-.2-.3C96.8,105.2,96.9,105.3,97,105.4Z" fill="#e0e0e4"/>
      <path id="Path_38076" data-name="Path 38076" d="M78.1,17.6a.367.367,0,0,0-.1-.3.367.367,0,0,1,.1.3Z" fill="#e0e0e4"/>
      <path id="Path_38077" data-name="Path 38077" d="M71.6,9.5Z" fill="#e0e0e4"/>
      <path id="Path_38078" data-name="Path 38078" d="M77.5,9.2a22.821,22.821,0,0,0,.3,6.7,22.528,22.528,0,0,1-.3-6.7Z" fill="#e0e0e4"/>
      <path id="Path_38079" data-name="Path 38079" d="M98.3,81.7a5.5,5.5,0,0,0-.9-.7Z" fill="#e0e0e4"/>
      <path id="Path_38080" data-name="Path 38080" d="M78.2,4.8c-.5-.3-1.7,0-3.6,2.1a15.287,15.287,0,0,1-2.8,2.5,15.287,15.287,0,0,0,2.8-2.5c1.9-2.1,3.1-2.4,3.6-2.1.4.3.5,1.4,0,2.6C78.7,6.2,78.6,5.1,78.2,4.8Z" fill="#e0e0e4"/>
      <path id="Path_38081" data-name="Path 38081" d="M100.4,95.6c.8-.8,1.5-1.4,2.1-2.1,0-.1.1-.1.1-.2,0,.1,0,.2-.1.2a10.434,10.434,0,0,1-2.1,2.1,42.068,42.068,0,0,0-3.7,3.7,5.888,5.888,0,0,0-1.4,2.3,6.679,6.679,0,0,1,1.4-2.3C98.3,97.6,99.5,96.5,100.4,95.6Z" fill="#e0e0e4"/>
      <path id="Path_38082" data-name="Path 38082" d="M34,82.3l.2.1c.6.4,1.3.9,1.9,1.3-.4-.3-.8-.5-1.2-.8-6.5-4.3-13.2-8.8-18.5-14.7-2.3-2.6-5-5.6-4.1-10,.2-1.1-.2-2.6-1.3-4.4-.9-1.5-1.8-3.1-2.7-4.6-2.6-4.7-5.4-9.4-8.3-14v1.9c2.6,4.1,5.1,8.4,7.5,12.5.9,1.5,1.8,3.1,2.7,4.6.9,1.6,1.3,2.9,1.1,3.7-1,4.9,1.9,8.2,4.3,10.9C20.8,74.5,27.1,78.9,33.4,83Z" fill="#e0e0e4"/>
      <path id="Path_38083" data-name="Path 38083" d="M77.7,8.5c.1-.2.1-.4.2-.5C77.8,8.1,77.8,8.3,77.7,8.5Z" fill="#e0e0e4"/>
      <path id="Path_38084" data-name="Path 38084" d="M99.1,86.6a9.44,9.44,0,0,1-3.3-2l.2.2.1.1a.1.1,0,0,1,.1.1l-.6.8A7.607,7.607,0,0,0,97.5,87l.5-.8h.1l-.2.4h0l-.2.4a14.274,14.274,0,0,0,2.2.8c0-.1-.1-.1-.1-.2Z" fill="#e0e0e4"/>
      <path id="Path_38085" data-name="Path 38085" d="M95.8,84.6A16.4,16.4,0,0,1,93,81.2a6.134,6.134,0,0,1,.3-1.6.349.349,0,0,1,.1-.2.454.454,0,0,1,.5,0c.6.5,1.3,1.1,1.9,1.6a23.125,23.125,0,0,1,2.4,2v-.1l-1.3-2.4a1.756,1.756,0,0,1-.5-.4c-.7-.5-1.3-1.1-2-1.6l-.1-.1a1.81,1.81,0,0,0-1.6.1l-.2.1-.1.2c0,.1-.1.3-.1.4-.3.8-.6,1.8-.2,2.4h0l.8-.5,1.5,2.1-.7.8a18.478,18.478,0,0,0,1.4,1.4.1.1,0,0,1-.1-.1Z" fill="#e0e0e4"/>
      <path id="Path_38086" data-name="Path 38086" d="M90.4,164.3h0c-.1,1.9-.2,3.8-.4,5.6h.1C90.2,168,90.4,166.1,90.4,164.3Z" fill="#e0e0e4"/>
      <path id="Path_38087" data-name="Path 38087" d="M90.2,161.7h.1c-.1-1.3-.2-2.6-.4-3.8A23.4,23.4,0,0,1,90.2,161.7Z" fill="#e0e0e4"/>
      <path id="Path_38088" data-name="Path 38088" d="M96.2,85h0l-.2-.1-.2-.2h0l-.7.7a.1.1,0,0,1,.1.1l.3.3.1.1h0Z" fill="#e0e0e4"/>
      <path id="Path_38089" data-name="Path 38089" d="M94.5,83.4A13.656,13.656,0,0,1,93,81.3l-.8.5h0A17.682,17.682,0,0,0,93.8,84h0Z" fill="#e0e0e4"/>
      <path id="Path_38090" data-name="Path 38090" d="M89.8,170.8h0c-.3,2-.7,4.1-1.2,6.5h.1a49.03,49.03,0,0,0,1.1-6.5Z" fill="#e0e0e4"/>
      <path id="Path_38091" data-name="Path 38091" d="M167.1,162l12.9.8,2.2,1.6,1.2-3.3,2.6-7.4.5-4.2-1.7-3.7,4.9-7.9.7-4.7,3.2-1.9,16.5-4.6,14.3.5,7.8,5.8,2.3,1-.1-.1,1.1.6,3.4-8.5,3.3-6.6-2.1-9.4-4.9-7.7-6.2-1.7h0l-.5-12.5-21.2-1h0L206,79.3l-3.7-4.5h0l1.8-4-.7-4.4-.2-6.1-5-3.2-7.9.2-4-1.1h0l-1.2-3.9-4.4-1.6-5.9-2-3.1-3.4-6.2-1.9-4.9-2.1-3.9,2L151,39.7l-6-6.5h0l-1.5-2.4L141,26.7h0l.5-6.2,1-5-1.3-6.8-3.5-.2H132l-6.2,1.9-7.3,4-1.7,4.9-3.2,1.4-2.8-.5-2.1,2.4h-2.5l-4.4,2.2-9.5-.2-.8.3.1.1c.7.9,1.8,2.5,3.1,4.2.1.1.2.3.3.4h0c3,4.1,6.8,9.1,7.8,10.3,1.7,2-.6,5-1.2,5.7L100.3,56l1,7.7L99.1,74a41.2,41.2,0,0,1,0,8.6,12.176,12.176,0,0,1,3.3,4.8h.4l.1.2.3.3.4.4,1.3,1.5-1.9-.7c-.3-.1-.7-.2-1-.3l-.3-.1-.1-.3h0a1.7,1.7,0,0,1-.7-.1c.2.4.4.7.6,1.1,1.3,2.2,2.3,3.9,1.5,4.9a15.211,15.211,0,0,1-2.2,2.2c-.9.9-2.1,1.9-3.7,3.6-1.9,2.2-1.2,3-.3,4a3.591,3.591,0,0,1,.7,1,.614.614,0,0,1,.1.6v.1l.7.4.7,2.9,3.4,3.4.3,3.3.7,6.1,4.7,5.7,3.1,3.8-1.3,4.5.5,2.4-2.6,6.6,7.9,8.4,8.6,22.6,2.6-.2,1.2-.8,5-6.5,5.1-5.2,3.4-1.3,3.9,2.5,5-1,2.7,1,6.6-.8,2.6,9.3.7-.6.5-3.1,1.1-2.4-.8-1.8h0Z" fill="#f7f7f9"/>
      <path id="Path_38092" data-name="Path 38092" d="M96.3,105.8h0c.2-.1.3-.2.4-.2.1-.1.2-.1.3-.2h0Z" fill="#e0e0e4"/>
      <path id="Path_38093" data-name="Path 38093" d="M163.5,172.4l-.7.6-2.6-9.4-6.6.8-2.7-1-5,1-3.9-2.5-3.4,1.3-5,5.3-5.1,6.5-1.2.8h0l1.2-.8,5.1-6.5,5-5.3,3.4-1.3,3.9,2.5,5-1,2.7,1,6.6-.7,2.6,9.3.7-.6.5-3.1,1.1-2.4v-.1l-1.1,2.5Z" fill="#e0e0e4"/>
      <path id="Path_38094" data-name="Path 38094" d="M151.2,39.8l5.7,3.6,3.9-1.9,4.9,2.1,6.2,1.9,3.1,3.4,5.9,1.9,4.4,1.6h0l-4.4-1.6L175,48.9l-3.1-3.4-6.2-1.9-4.9-2.1-3.9,1.9-5.7-3.6-6-6.5h0Z" fill="#e0e0e4"/>
      <path id="Path_38095" data-name="Path 38095" d="M91.7,24.8l.8-.3,9.5.2,4.4-2.2h2.5l2.1-2.4,2.8.5,3.2-1.4,1.7-4.9,7.3-4,6.2-1.9h5.7l3.5.2h0l-3.5-.2h-5.7L126,10.3l-7.3,4L117,19.2l-3.2,1.4-2.8-.5-2.1,2.4h-2.5L102,24.7l-9.5-.2-.8.3c.5.7,1.2,1.7,2.1,2.8a14.31,14.31,0,0,0,1.1,1.5c-1.3-1.7-2.4-3.2-3.1-4.2Z" fill="#e0e0e4"/>
      <rect id="Rectangle_8882" data-name="Rectangle 8882" width="21.2" transform="translate(207.509 88.022) rotate(-2.293)" fill="#e0e0e4"/>
      <rect id="Rectangle_8883" data-name="Rectangle 8883" width="5.8" transform="matrix(0.986, -0.164, 0.164, 0.986, 201.541, 77.57)" fill="#e0e0e4"/>
      <path id="Path_38096" data-name="Path 38096" d="M143.7,30.9l-2.5-4.1h0Z" fill="#e0e0e4"/>
      <path id="Path_38097" data-name="Path 38097" d="M190.5,57.4l7.8-.2,5,3.1h0l-5-3.1-7.9.2-3.9-1.1h0Z" fill="#e0e0e4"/>
      <path id="Path_38098" data-name="Path 38098" d="M180,162.7l-12.9-.7-2.8,3.1h0l2.8-3.1,12.9.7,2.3,1.7h0Z" fill="#e0e0e4"/>
      <path id="Path_38099" data-name="Path 38099" d="M235.4,102.3l4.9,7.7h0l-4.9-7.7-6.2-1.8h0Z" fill="#e0e0e4"/>
      <path id="Path_38100" data-name="Path 38100" d="M98,105.6c0-.3,0-.5-.1-.6a8.649,8.649,0,0,0-.7-1c-.9-1-1.6-1.8.3-4a29.417,29.417,0,0,1,3.7-3.6,22.817,22.817,0,0,0,2.2-2.2c.8-1-.2-2.7-1.5-4.9-.2-.4-.4-.7-.6-1.1.2,0,.5.1.7.1h0l.1.3.3.1c.3.1.7.2,1,.3l1.9.7L104,88.2c-.1-.2-.3-.3-.4-.4l-.3-.3-.1-.2h-.4a12.176,12.176,0,0,0-3.3-4.8,41.2,41.2,0,0,0,0-8.6l2.2-10.3-1-7.7L102,45.5c.5-.7,2.9-3.7,1.2-5.7-1-1.2-4.7-6.2-7.8-10.3l-.8.6V30c-.1-.1-.1-.2-.2-.3,3.1,4.1,7.1,9.4,8.1,10.6,1.1,1.3-.7,3.7-1.2,4.4h0l-.1.1-.1.1h0L99.8,55.7l1,7.7L98.6,73.7v.1a40.663,40.663,0,0,1,.1,7.8h0L97.4,81l-.5-.4h0L98.2,83v.1l.1.2h.1a11.427,11.427,0,0,1,2.9,4,2.92,2.92,0,0,1-.9-.2h-.2l-.4-.1-.7-.2h0l.6,1c0,.1.1.1.1.2.4.7.7,1.3,1.1,1.9.8,1.3,1.7,2.8,1.7,3.5,0,.1,0,.2-.1.2a20.707,20.707,0,0,1-2.1,2.1,42.317,42.317,0,0,0-3.7,3.7,5.888,5.888,0,0,0-1.4,2.3,3.052,3.052,0,0,0,1,3c.1.2.3.3.4.5.1.1.2.2.2.3l.2-.2.7.5Z" fill="#e0e0e4"/>
      <path id="Path_38101" data-name="Path 38101" d="M97.8,86.7h0" fill="none" stroke="#f7f7f9" stroke-linecap="round" stroke-linejoin="round" stroke-width="0"/>
      <path id="Path_38102" data-name="Path 38102" d="M98,86.2h-.1l-.5.8h0v.1h.2l.2-.4Z" fill="#e0e0e4"/>
      <path id="Path_38103" data-name="Path 38103" d="M45.5,90.3h0c-1.8-1.4-3.6-2.7-5.5-4a8.342,8.342,0,0,0-1.2-.8c-.5-.3-1-.7-1.5-1-.4-.3-.8-.5-1.2-.8-.6-.4-1.3-.9-1.9-1.3l-.2-.1-.5.8h0l.4.3c.9.6,1.7,1.1,2.6,1.7.1,0,.1.1.2.1L39.4,87h0c1.8,1.3,3.7,2.6,5.4,3.9h0Z" fill="#e0e0e4"/>
      <path id="Path_38104" data-name="Path 38104" d="M106.4,350h-.8l.4-.7,2.1-4a45.252,45.252,0,0,1,.7-7.4,4.556,4.556,0,0,1,1.7-2.9,5.076,5.076,0,0,1,1.8-.9c.3-1,1.4-4.9-.4-11.8-2.1-8-4-10.7-4-10.7l-6.4-12c-.2-.8-2.2-8.1-1.9-9.6a22.874,22.874,0,0,1,.5-2.5v-.2l3.1-2.6.9-4.7,1.2-3.2.5-6.5-2.4-3.9,2.8-17,2.4-4.1,2.9-8,4-3.7,2.9-2.9-1.6-4.5-1.3-2.8.6-2.3h0l.2-.2,1.6-1-.6-3.5-1.5-2.7-.2-6.3a11.939,11.939,0,0,0-2.1-4.4c-1.7-2,1.6-5.1,1.8-5.2h0l.1-.1,6.5-2.9,6.5-3.7,3-13.1-1.6-2.8h0l-2.3,1.5h0l-.9.6.4-.5-3,.2-8.8-23.2-8.1-8.6,2.7-6.9-.5-2.4,1.2-4.2-2.7-3.4-4.9-5.9-.7-6.4-.2-3-3.3-3.4-.7-2.8-.5-.3a.1.1,0,0,0-.1.1c-.6.3-1.3.7-1.2,2.5.4,3.9-1.2,6-5.5,7.3a45.211,45.211,0,0,0-5,1.9,7.826,7.826,0,0,1,2.1,4.9c.1.9.2,1.9.3,2.8a21.208,21.208,0,0,0,.6,4.4c1.1,4.8,1.9,9.6.4,14.7a10.09,10.09,0,0,0,.5,5.5c2.8,8.7,2.7,18-.2,29.2a9.434,9.434,0,0,0-.4,4.1c2.4,10,2.2,20.2,2.1,30.1-.1,4.5-.1,9.2,0,13.8a52.048,52.048,0,0,1-1.3,11.8c-.9,5.1-1.8,9.9-3,14.4a12.445,12.445,0,0,0,.1,8.3,18.492,18.492,0,0,1-.2,13.3,16.4,16.4,0,0,0-.1,12.5,27.391,27.391,0,0,1,1.6,8.9,27.029,27.029,0,0,0,1.5,8.4c.7,1.7.4,3.6.2,5.5a18.843,18.843,0,0,0-.2,3.3,33.872,33.872,0,0,0,1.1,7.1,11.72,11.72,0,0,1-.4,7.4,83.638,83.638,0,0,0-2.7,9.8c-1.3,5.5-2.6,11.1-3.9,16.6h25.5C108,352.3,106.9,350.2,106.4,350Z" fill="#f7f7f9"/>
      <path id="Path_38105" data-name="Path 38105" d="M90.2,328.6a12.5,12.5,0,0,0,.4-7.4,33.871,33.871,0,0,1-1.1-7.1c0-1.1.1-2.2.2-3.3.2-1.9.5-3.9-.2-5.5a27.029,27.029,0,0,1-1.5-8.4,27.391,27.391,0,0,0-1.6-8.9,16.4,16.4,0,0,1,.1-12.5,17.985,17.985,0,0,0,.2-13.3,13.1,13.1,0,0,1-.1-8.3c1.2-4.5,2.1-9.3,3-14.4a66.6,66.6,0,0,0,1.3-11.8c-.2-4.6-.1-9.2,0-13.8.1-9.9.3-20.2-2.1-30.1a8.249,8.249,0,0,1,.4-4.1c3-11.2,3-20.4.2-29.2a10.09,10.09,0,0,1-.5-5.5c1.5-5.1.7-9.9-.4-14.7-.3-1.4-.4-3-.6-4.4a26.6,26.6,0,0,0-.3-2.8,9,9,0,0,0-2.1-4.9,45.211,45.211,0,0,1,5-1.9c4.3-1.3,5.9-3.4,5.5-7.3-.2-1.8.5-2.2,1.2-2.5a.1.1,0,0,0,.1-.1l.5.3.7,2.8,3.3,3.4.2,3,.7,6.4,4.9,5.9,2.7,3.4-1.2,4.2.5,2.4-2.7,6.9,8.1,8.6,9,23.3,3.1-.2,1.4-1.8-1.2.8h0l-2.6.2-8.6-22.6-7.9-8.4,2.6-6.6-.5-2.4,1.3-4.5-3.1-3.8-4.7-5.7-.7-6.1-.3-3.3-3.4-3.4-.7-2.9-.7-.4-.7-.5-.2.2h0c-.1.1-.2.1-.3.2s-.2.1-.4.2c-.7.4-1.5,1.2-1.3,3.2.3,3.4-.9,5-4.8,6.2-1.3.4-3.4,1.2-5.8,2.2l-.7.3.6.5h0a7.184,7.184,0,0,1,2.4,4.8c.1.9.2,1.9.3,2.8a24.168,24.168,0,0,0,.6,4.6c1.1,4.7,1.9,9.3.4,14.2a10.872,10.872,0,0,0,.5,6,6.373,6.373,0,0,1,.2.7l.9-.3c2.6,8.7,2.5,17.7-.4,28.5l-1-.3a9.767,9.767,0,0,0-.4,4.5c2.4,9.9,2.2,20.1,2.1,29.9-.1,4.5-.1,9.2,0,13.8a56.393,56.393,0,0,1-1.2,11.6c-.9,5.1-1.8,9.8-3,14.3a14.255,14.255,0,0,0,.1,8.9,17.136,17.136,0,0,1-.2,12.6,17.5,17.5,0,0,0-.1,13.3,27.25,27.25,0,0,1,1.5,8.6,29.454,29.454,0,0,0,1.5,8.7,9.324,9.324,0,0,1,.1,5,21.144,21.144,0,0,0-.2,3.5,35.765,35.765,0,0,0,1.1,7.3,11.63,11.63,0,0,1-.3,6.9,85.226,85.226,0,0,0-2.7,9.9L82.7,355h1c1.3-5.6,2.6-11.1,3.9-16.6A67.425,67.425,0,0,1,90.2,328.6Z" fill="#e0e0e4"/>
      <path id="Path_38106" data-name="Path 38106" d="M112.3,334.1h0a3.84,3.84,0,0,0-1.8.9,6.078,6.078,0,0,1,1.8-.9Z" fill="#e0e0e4"/>
      <path id="Path_38107" data-name="Path 38107" d="M115.4,197.8l-.1.1h0l.1-.1,6.5-2.9,6.6-3.7h0l-6.6,3.7Z" fill="#e0e0e4"/>
      <path id="Path_38108" data-name="Path 38108" d="M127.6,176.8l2.3-1.5Z" fill="#e0e0e4"/>
      <path id="Path_38109" data-name="Path 38109" d="M116.2,221.1l.2-.1Z" fill="#e0e0e4"/>
      <path id="Path_38110" data-name="Path 38110" d="M284.4,201.5l-.5-2.7-.1-.5.8-4.8.5-5.4-1.4-1.5-3-1.6-4.8,3.2-2.7-.8-2.2-6.2h0l-2.6-9.2-1.2-5.1c-1.9-.3-4.3-2.4-5-3.1l-5.8,2.4-2.2-.8h-2.8l-4-.2-1.6-.9-4.3.7-1.8-2.2h0l1-3.5-.3-5.2v-5.6l-.1-.3-1.3-3.5h0v-.1l-.3-2.2-.1-.6-3-2.4h0l.8-2.2-.8-1.4-3.7-1.6-7.6-5.7-13.8-.5-16.3,4.5-2.6,1.5-.8,4.5-4.7,7.5,1.6,3.5-.5,4.6-2.7,7.5h0l-1.2,3.3,2.1,3,3.1.8,2.3,5.3,8,7.7h2.4l3.4,3.3,2,2.9,6.7,1.5,4.4,2.5h3.1L226,197l5.5,2.8,7.5,1,6.8,6.6,1.1,3-1.3,3.9h0l-1.7,2.2-2.1,1.3-.7,1.9,1.1,2.1-2.1,4.9h0l-4,4.6-.5,1.4,9.9-1.2,7.6,2,5.1,3.1,2.8-.9h1.2l1.4.6,1.8-2.7,1.8-.8,2.4.9,2.2-3.5.8-2.5h0l5.7-3.5,1.5-3.9h0l2.8-2.9.6-3.7-.1-1.8-.5-4h0l.1-.1.8-.7.6-3.4Z" fill="#f7f7f9"/>
      <path id="Path_38111" data-name="Path 38111" d="M240.2,148l-1.3-3.6v.1Z" fill="#e0e0e4"/>
      <rect id="Rectangle_8884" data-name="Rectangle 8884" width="4" transform="translate(279.866 220.204) rotate(-46.419)" fill="#e0e0e4"/>
      <path id="Path_38112" data-name="Path 38112" d="M272.7,227.6l5.7-3.6h0Z" fill="#e0e0e4"/>
      <path id="Path_38113" data-name="Path 38113" d="M273.1,187.4l2.7.8,4.8-3.2,3,1.6,1.4,1.5h0l-1.4-1.5-3-1.6-4.8,3.2-2.7-.8-2.2-6.2h0Z" fill="#e0e0e4"/>
      <path id="Path_38114" data-name="Path 38114" d="M282.6,207.7Z" fill="#e0e0e4"/>
      <path id="Path_38115" data-name="Path 38115" d="M284.4,201.5l-.5-2.7Z" fill="#e0e0e4"/>
      <path id="Path_38116" data-name="Path 38116" d="M267.3,232.7l-1.7.8-1.8,2.6-1.4-.6h-1.2l-2.8.9-5.1-3.1-7.7-2-9.9,1.2.5-1.4h0l-.5,1.4,9.9-1.2,7.7,2,5.1,3.1,2.8-.9h1.2l1.4.6,1.8-2.6,1.7-.8,2.4.9,2.2-3.5h0l-2.2,3.5Z" fill="#e0e0e4"/>
      <path id="Path_38117" data-name="Path 38117" d="M242.3,221.6l-1.1-2.1.6-1.9h0l-.6,1.9,1.1,2.1-2.1,4.9h0Z" fill="#e0e0e4"/>
      <path id="Path_38118" data-name="Path 38118" d="M246.9,210.2l-1-3-6.8-6.7-7.5-1-5.5-2.8-5.3-5.1h-3.1l-4.4-2.5-6.7-1.4-2-2.9-3.4-3.3h-2.4l-8-7.7-2.4-5.3-3.1-.8-2.1-3h0l2.1,3,3.2.8,2.3,5.3,8,7.7h2.4l3.4,3.3,2,2.9,6.7,1.4,4.4,2.5h3.1l5.3,5.1,5.5,2.8,7.5,1,6.8,6.7,1,3-1.2,3.8h0Z" fill="#e0e0e4"/>
      <path id="Path_38119" data-name="Path 38119" d="M238.4,141.5l.1.7-.1-.7-3.1-2.4h0Z" fill="#e0e0e4"/>
      <path id="Path_38120" data-name="Path 38120" d="M241.4,164.8l4.3-.7,1.6.9,4,.2h2.8l2.2.8,5.8-2.4c.8.7,3.1,2.8,5,3.1h0c-1.9-.3-4.3-2.4-5-3.1l-5.8,2.4-2.2-.8h-2.8l-4-.2-1.6-.9-4.3.7-1.8-2.2h0Z" fill="#e0e0e4"/>
      <path id="Path_38121" data-name="Path 38121" d="M283.5,206.9h0l.6-3.3Z" fill="#e0e0e4"/>
      <path id="Path_38122" data-name="Path 38122" d="M187.1,154l.5-4.6-1.6-3.5,4.7-7.6.7-4.5,2.7-1.5,16.3-4.6,13.8.5,7.6,5.7,3.6,1.6.8,1.4h0l-1.5-2.8-2.4-1-7.8-5.9-14.2-.5-16.6,4.6-3.2,1.9-.7,4.7-4.9,7.9,1.7,3.7-.4,4.2-2.7,7.4-1.2,3.3h0l1.2-3.3,1,.4v-.1Z" fill="#e0e0e4"/>
      <path id="Path_38123" data-name="Path 38123" d="M55.7,2.5c.9.3,1.5,1.5,2.3,2.8,1.1,2.1,2.5,4.4,5,4.6l1,.1c3.8.3,5.8.5,9.8-3.8,2.8-3,4.3-2.7,4.9-2.2,1,.7,1,2.6,0,4.4-1.3,2.4.6,10.7,1.4,14.3.1.4.2.8.3,1.1.3,1.2,3.5.6,5.9.1,2.6-.5,4.1-.8,4.6,0l1.3-.4,9.4.2,4.3-2.2h2.3l2.2-2.5,3,.5,2.6-1.1,1.7-4.8,7.7-4.2,6.4-2h5.8l4.3.3,1.5,7.7-1,5.2-.5,5.8,3.8,6.2,5.9,6.4,5,3.2,3.8-1.9,5.3,2.3,6.4,2,3.1,3.4,5.7,1.9,4.8,1.8,1.2,3.8,3.3.9,8.1-.2,5.7,3.6.2,6.5.7,4.7-1.6,3.7,3.5,4.2,1.2,7.2,21.3,1,.5,12.7,5.9,1.7,5.2,8.3,2.2,9.8-3.5,6.9-3.6,8.8.8,1.6-.8,2,2.8,2.2.5,3.2,1.5,4v5.6l.3,5.4-.9,3.2,1.1,1.4,4.1-.6,1.7,1,3.7.2h3l2,.8,6.1-2.5.2.2c.9.9,3.4,3.1,5,3.1h.4l1.4,5.9,2.6,9.2,2,5.7,1.8.5,4.9-3.2,3.8,2,1.8,1.9-.5,5.9-.8,4.6.6,3.2-.8,4.7,1.5-.7,5.9,1.1v2.2l2.5,5.8.2,1.6v3.1l.9,8.6h0l-1.5,2.1-1.8-.1-3.1,1.3-1.6,2.7-1-.6-5.2,3-.1,1.6h0l-2.6.4-1.8,1-2.4,2.8-2,1,.2,2h0l-1.3,1.1h-2.6l-4.2,5.1v1.9l-.1,2.8h0l-1.7-.1-1,1.4-2.6,4.9-3.5,4.4-.4,1.4h0l-1.8,1.1-.1.7h.4l2.3.6,6.1-1.6,2.3,1.6,1.4,1.7,1.5,2.3,2.6,1.1,1.7,3.2,2.7,4.8.7-.1,2.7-2.6,1.8.3,2.8,4.6,2.1,1.1,4.2,1,2.7,3.3.4,2.4h1.1l6.5,3.3,3.9,6.3,3.1,2.6h0l-.9,2.3-2.7,4.6,1.1,1.3v1.2l1.8,2.3,2.8,2.8a9.424,9.424,0,0,1,1-1,17.888,17.888,0,0,0,2.7-2.8h0a2.185,2.185,0,0,0,.3-.5h.1a21.37,21.37,0,0,0,1.7-3v-.5h.2a32.627,32.627,0,0,0,1.4-4.1c1.2-4.7,2.4-9.5,3.6-14.2l.1-.3c-1.1-4-.4-6,2.7-7.8a13.521,13.521,0,0,1,3.4-1.1,29.675,29.675,0,0,1,4.1-10.3,3.847,3.847,0,0,1,2.7-1.6c1,0,1.9,1.6,2.1,2.2a22.508,22.508,0,0,1,.9,3.5c2.2-.5,3.3-2.4,4.1-4.2,3.8-9.1,8.3-18.6,14.4-27.3,4.8-6.9,5.6-13,2.5-18.9a8.19,8.19,0,0,1-.7-3c-1.6-9.8.9-17.3,7.5-22.9a111.178,111.178,0,0,0,8.6-8,40.721,40.721,0,0,1,16.3-10.1,19.774,19.774,0,0,0,8.4-4.7c.5-.5,1.1-1,1.7-1.5,1.6-1.4,3.1-2.7,3.6-4.9.2-.9,2-1.7,2.9-1.5a17.317,17.317,0,0,0,6.8-.2c.6-.1,1.1-.2,1.7-.3a23.6,23.6,0,0,1,5.3.1c.6,0,1.1.1,1.7.1h.2a8.552,8.552,0,0,0,1.6,0c5-.1,10.1-.9,13.8-5.9a13.59,13.59,0,0,1,4.5-3.2,20.115,20.115,0,0,0,2.9-1.7,4.4,4.4,0,0,0,1.8-4.6,9.6,9.6,0,0,1,1.1-7.4l3-5.4c1.8-3.3,3.6-6.7,5.7-9.9,2.7-4.1,3.7-7.9,3.2-12.1-.4-3.1-.6-7.2,1.6-10.3,3.9-5.5,4.5-11.9,4.8-17.9.3-7.5.3-14.8.3-23.5,0-2.5-.1-5-.2-7.5-.1-2.8-.2-5.7-.2-8.6,0-3.3,1.3-5.6,3.6-6.6,6.1-2.7,10.2-7.5,12.6-14.9.6-1.4,1.3-2.7,2-4a31.769,31.769,0,0,1,7.8-10.7A153.261,153.261,0,0,0,501.5,6.1,40.226,40.226,0,0,0,506,.4H46.3L45,3.2C47.5,2.5,54,2,55.7,2.5ZM347.5,111.8V114l-2.9-1.1Z" fill="#f6fbeb"/>
      <path id="Path_38124" data-name="Path 38124" d="M506.4,0a40.225,40.225,0,0,1-4.5,5.7,153.276,153.276,0,0,1-11.4,11.4,28.479,28.479,0,0,0-7.8,10.7c-.7,1.3-1.4,2.6-2,4-2.5,7.4-6.5,12.2-12.6,14.9-2.3,1-3.5,3.4-3.6,6.6,0,2.9.1,5.8.2,8.6.1,2.5.2,5,.2,7.5,0,8.7,0,16-.3,23.5-.3,6.1-.8,12.4-4.8,17.9-2.2,3.1-2,7.2-1.6,10.3.5,4.2-.5,8-3.2,12.1-2.1,3.2-3.9,6.6-5.7,9.9l-3,5.4a10.132,10.132,0,0,0-1.1,7.4,4.333,4.333,0,0,1-1.8,4.6,16.925,16.925,0,0,1-2.9,1.7,13.59,13.59,0,0,0-4.5,3.2c-3.7,4.9-8.8,5.7-13.8,5.9h-1.6l-.1,1h-.2l.1-.9c-.6,0-1.1-.1-1.7-.1a23.383,23.383,0,0,0-5.3-.1c-.6.1-1.1.2-1.7.3a17.317,17.317,0,0,1-6.8.2c-.9-.2-2.7.6-2.9,1.5-.5,2.2-2,3.5-3.6,4.9-.6.5-1.1,1-1.7,1.5a20.391,20.391,0,0,1-8.4,4.7A41.415,41.415,0,0,0,372,194.4a111.177,111.177,0,0,1-8.6,8c-6.6,5.6-9.1,13.1-7.5,22.9a10.88,10.88,0,0,0,.7,3c3.1,5.8,2.3,12-2.5,18.9-6.1,8.7-10.5,18.3-14.4,27.3-.8,1.8-1.9,3.7-4.1,4.2a35.776,35.776,0,0,0-.9-3.5c-.2-.6-1-2.2-2.1-2.2a3.847,3.847,0,0,0-2.7,1.6,29.676,29.676,0,0,0-4.1,10.3,14.962,14.962,0,0,0-3.4,1.1c-3,1.8-3.7,3.7-2.7,7.8l-.1.3c-1.2,4.8-2.4,9.5-3.6,14.2a32.638,32.638,0,0,1-1.4,4.1h1.1a35.629,35.629,0,0,0,1.3-3.9c1.1-4.4,2.2-8.8,3.4-13.3l.2.3.3-.9c0-.1,0-.1.1-.2a.367.367,0,0,0-.3.1l-.7.1.2-.7a6.469,6.469,0,0,1,.4-1.3c-.6-3,0-4.4,2.4-5.8a15.546,15.546,0,0,1,2.3-.8c.1-.2.3-.3.4-.5,0-.1,0-.1.1-.2v-.1l.1-.3.3-.1c.1,0,.3-.1.4-.1h0c.1-.1.3-.2.4-.4a27.578,27.578,0,0,1,3.8-9.2,2.7,2.7,0,0,1,1.9-1.1c.2,0,.8.8,1.1,1.6.4,1.1.6,2.2.9,3.3h.3c.1,0,.2-.1.3-.1h.4l.2.8c2.7-.6,4-2.8,4.8-4.8,3.8-9,8.2-18.5,14.3-27.1,5-7.2,5.9-13.7,2.6-19.9a6.6,6.6,0,0,1-.6-2.7c-1.5-9.6.7-16.6,7.2-22a111.187,111.187,0,0,0,8.6-8,38.662,38.662,0,0,1,15.9-9.8c3.5-1.2,6.4-2.5,8.8-4.9.5-.5,1.1-1,1.6-1.5,1.7-1.4,3.4-2.9,4-5.5a2.412,2.412,0,0,1,1.7-.7,17.388,17.388,0,0,0,7.2-.2c.6-.1,1.1-.2,1.7-.3a21.018,21.018,0,0,1,5,.1c1.2.1,2.4.2,3.6.2,5.2-.1,10.6-1,14.6-6.3a10.482,10.482,0,0,1,4.1-2.9,24.79,24.79,0,0,0,3.1-1.8,5.275,5.275,0,0,0,2.2-5.7,8.726,8.726,0,0,1,1-6.7c1-1.8,2-3.7,3-5.5,1.8-3.3,3.6-6.7,5.7-9.8,2.8-4.3,3.9-8.4,3.3-12.8-.4-3-.6-6.7,1.4-9.6,4.1-5.7,4.7-12.3,4.9-18.5.4-8.2.3-16.7.3-23.5,0-2.5-.1-5.1-.2-7.5-.1-2.8-.2-5.7-.2-8.6,0-1.6.4-4.6,3-5.7,6.3-2.8,10.6-7.9,13.1-15.5a36.007,36.007,0,0,1,2-3.9,30.082,30.082,0,0,1,7.6-10.4A154.619,154.619,0,0,0,502.7,6.4a44.077,44.077,0,0,0,5-6.4h-1.3Z" fill="#e0e0e4"/>
      <path id="Path_38125" data-name="Path 38125" d="M43.4,3.9l.9-.1c2.6-.3,9.6-.9,11.1-.4.5.2,1.1,1.2,1.7,2.3,1.1,2.1,2.7,4.9,5.8,5.1l1,.1a16.908,16.908,0,0,0,4.5,0,7.68,7.68,0,0,0,3.1-1.4h.1a.349.349,0,0,1,.2-.1,15.287,15.287,0,0,0,2.8-2.5c2-2.1,3.2-2.4,3.6-2.1s.5,1.4,0,2.6c-.1.2-.2.3-.3.5V8c-.1.2-.2.3-.2.5v.1c-.1.2-.1.4-.2.6h0a22.528,22.528,0,0,0,.3,6.7v.2c0,.2.1.4.1.6s.1.4.1.6a.367.367,0,0,0,.1.3c.1.3.1.6.2.8,0,.1.1.3.1.4,0,.2.1.4.1.6.3,1.3.6,2.6.8,3.5.1.4.2.8.3,1.1.5,2.2,4,1.5,7.1.9a10.861,10.861,0,0,1,3.6-.4l.2.3c.1.1.1.2.2.3.5.7,1.3,1.8,2.3,3.1a14.309,14.309,0,0,0,1.1,1.5c.1.1.1.2.2.3v.1l.8-.6h0c-.1-.1-.2-.3-.3-.4a14.308,14.308,0,0,1-1.1-1.5c-.9-1.2-1.6-2.2-2.1-2.8l.8-.3,9.5.2,4.4-2.2h2.5l2.1-2.4,2.8.5,3.2-1.4,1.7-4.9,7.3-4,6.2-1.9h5.7l3.5.2h0l1.3,6.8-1,5-.5,6.2h0l2.5,4.1,1.5,2.4h0l6,6.5,5.7,3.6,3.9-2,4.9,2.1,6.2,1.9,3.1,3.4,5.9,2,4.4,1.6h0l1.2,3.9h0l4,1.1,7.9-.2,5,3.2h0l.2,6.1.7,4.4-1.8,4h0l3.7,4.5h0l1.3,7.8h0l21.2,1h0l.5,12.5h0l6.2,1.7,4.9,7.7h0l2.1,9.4-3.3,6.6-3.4,8.5-1.1-.6.1.1,1.5,2.8h0l-.8,2.2h0l3,2.4.1.7.3,2.2v.1l1.3,3.6.1.3v5.6l.3,5.2-1,3.5h0l1.8,2.2,4.3-.7,1.6.9,4,.2h2.8l2.2.8,5.8-2.4c.8.7,3.1,2.8,5,3.1h0l1.2,5.1,2.6,9.2h0l2.2,6.2,2.7.8,4.8-3.2,3,1.6,1.4,1.5h0l-.5,5.4-.8,4.8.1.5.5,2.7h0l-.3,2.1-.6,3.3v-.2l2.6-1.2,5.9,1.1v2.2l2.5,5.8.2,1.6V219l.9,8.6h0l-.9-8.6v-3.1l-.2-1.6-2.5-5.8v-2.2l-5.9-1.1-1.5.7.8-4.7-.6-3.2.8-4.6.5-5.9-1.8-1.9-3.8-2-4.9,3.2-1.8-.5-2-5.7-2.6-9.2-1.4-5.9h-.4c-1.5,0-4.1-2.2-5-3.1l-.2-.2-6.1,2.5-2-.8h-3l-3.7-.2-1.7-1-4.1.6-1.1-1.4.9-3.2-.3-5.4v-5.6l-1.5-4-.5-3.2-2.8-2.2.8-2-.8-1.6,3.6-8.8,3.5-6.9-2.2-9.8-5.2-8.3-5.9-1.7-.5-12.7-21.3-1-1.2-7.2-3.5-4.2,1.6-3.7-.7-4.7-.2-6.5-5.7-3.6-8.1.2-3.3-.9-1.2-3.8-4.8-1.8-5.7-1.9L172.1,44l-6.4-2-5.3-2.3-3.8,1.9-5-3.2L145.7,32l-3.8-6.2.5-5.8,1-5.2-1.5-7.7-4.3-.3H132l-6.4,2L117.9,13l-1.7,4.8-2.6,1.1-3-.5-2.2,2.5h-2.3l-4.3,2.2-9.4-.2-1.4,1c-.6-.7-2-.5-4.6,0-2.4.5-5.6,1.1-5.9-.1-.1-.3-.2-.7-.3-1.1-.8-3.5-2.8-11.8-1.4-14.3,1-1.8,1-3.7,0-4.4-.6-.5-2.1-.8-4.9,2.2-4,4.3-6.1,4.1-9.8,3.8L63,9.9c-2.5-.2-3.8-2.5-5-4.6-.7-1.3-1.4-2.5-2.3-2.8-1.7-.5-8.2,0-10.6.3L46.3,0H45.2Z" fill="#e0e0e4"/>
      <path id="Path_38126" data-name="Path 38126" d="M264.6,253.2h0l-.2,2.8h0Z" fill="#e0e0e4"/>
      <rect id="Rectangle_8885" data-name="Rectangle 8885" height="1.5" transform="translate(254.858 266.882) rotate(-51.823)" fill="#e0e0e4"/>
      <path id="Path_38127" data-name="Path 38127" d="M272.5,243.1h0l.2,2h0Z" fill="#e0e0e4"/>
      <path id="Path_38128" data-name="Path 38128" d="M303.5,303l-3.9-6.3-6.5-3.3h-1.2l-.4-2.3-2.7-3.3-4.2-1-2.2-1.1-2.8-4.6-1.8-.3-2.7,2.6-.7.1-2.7-4.8-1.7-3.2-2.5-1.1-1.6-2.3-1.4-1.7-2.4-1.6-6.1,1.6-2.3-.5h-.4l.1-.8h0l-.1.8h.4l2.3.6,6.1-1.6,2.4,1.5,1.4,1.7,1.6,2.4,2.5,1.1,1.7,3.1,2.7,4.8.7-.1,2.7-2.5,1.8.3,2.8,4.5,2.2,1.1,4.2,1,2.7,3.3.4,2.4h1.2l6.5,3.2,3.9,6.4,3.1,2.5h0Z" fill="#e0e0e4"/>
      <path id="Path_38129" data-name="Path 38129" d="M347.5,111.8l-2.9,1.1,2.9,1.1Z" fill="#e0e0e4"/>
      <rect id="Rectangle_8886" data-name="Rectangle 8886" height="1.6" transform="matrix(0.869, -0.495, 0.495, 0.869, 280.923, 236.407)" fill="#e0e0e4"/>
      <path id="Path_38130" data-name="Path 38130" d="M314.6,313.8v-1a21.373,21.373,0,0,1-1.7,3l.4.2h0l.4.3a2.093,2.093,0,0,1-.4.6l-.8-.6a14.381,14.381,0,0,1-2.7,2.8,9.432,9.432,0,0,0-1,1l-2.8-2.8-1.8-2.3v-1.2l-1.1-1.3h0l1.1,1.3V315l1.8,2.3,3.5,3.5a4.739,4.739,0,0,1,1-1,17.46,17.46,0,0,0,5.1-6.8Z" fill="#e0e0e4"/>
      <path id="Path_38131" data-name="Path 38131" d="M335.7,278.8h-.4a.367.367,0,0,0-.3.1h-.4v.5c.1,0,.3-.1.4-.1l.5-.1.1.5c0,.1.1.3.1.4l.2-.1-.1-.2Z" fill="#e0e0e4"/>
      <path id="Path_38132" data-name="Path 38132" d="M321.4,293.3c6.8-1.1,11.2-5.3,13.4-12.7v-.3a15.111,15.111,0,0,0-2.9,1.3c-1.3.9-2.6,2-3.9,3.1-.5.4-.9.8-1.4,1.2-1.5,1.6-2.9,3.3-4.2,5a17.257,17.257,0,0,0-1,2.4Z" fill="#f7f7f9"/>
      <path id="Path_38133" data-name="Path 38133" d="M335.7,279.5l-.1-.5-.5.1c-.1,0-.3.1-.4.1a18.666,18.666,0,0,0-3.2,1.5c-1.4,1-2.7,2.1-4,3.2-.1.1-.3.2-.4.3s-.3.2-.4.4l1.4-.3-1.1,1.3-.2.2-.1.1-.1.1-1,.9.2-1.3v-.1c-.1.2-.3.3-.4.5-1.3,1.4-2.5,2.9-3.7,4.4a14.716,14.716,0,0,0-1,2.2,6.468,6.468,0,0,0-.4,1.3l-.2.7.7-.1a.367.367,0,0,0,.3-.1c7.4-1.1,12.3-5.6,14.7-13.6v-.9a.6.6,0,0,1-.1-.4Zm-9,6.4c.5-.4.9-.8,1.4-1.2,1.3-1.1,2.6-2.2,3.9-3.1a15.111,15.111,0,0,1,2.9-1.3v.3c-2.2,7.5-6.6,11.6-13.4,12.7a11.175,11.175,0,0,1,1.1-2.5,59.146,59.146,0,0,1,4.1-4.9Z" fill="#e0e0e4"/>
      <path id="Path_38134" data-name="Path 38134" d="M325.5,286.9l1-.9.1-.1.1-.1.2-.2,1.1-1.3-1.4.3h0c-.1,0-.3.1-.4.1l-.3.1-.1.3v.1c0,.1,0,.1-.1.2v.1Z" fill="#e0e0e4"/>
      <path id="Path_38135" data-name="Path 38135" d="M250.5,279.8l-1.1,2.6.3,2.9.2,3.9-.7,1.5-.4,2.6-1,3.5,1.1,3.3-.9,1.3.3,4,1.1,5.3-.6,2.7h0l-1.7.6-.6,1.5v4.9l1.8,3.9,3.9,5.6.6.4,3.1,2.2,1.4.1c5.7.5,11.5,1.1,16.8,4.3h.1a10.571,10.571,0,0,0,4,.8c2.9.2,5.8.2,8.6.3h.2c7.6.1,13.1-2.9,16.7-8.9.3-.5.5-.9.8-1.4a14.165,14.165,0,0,0,.8-1.8l.1-.1h0a21,21,0,0,1,2.9-5l-3-3-2-2.6V314l-1.3-1.6,3.1-5.1.6-1.5-2.7-2.3-3.8-6.2-6.1-3h-1.7l-.5-2.9-2.3-2.8-4.1-1-2.4-1.3-2.7-4.4-.9-.1-2.6,2.5-1.7.2-3.1-5.4-1.5-2.9-2.5-1.1-1.7-2.5L264,271l-2-1-6,1.6-2.5-.6h-.4l-1.3,3.3-2.3,3,.6,1.5Z" fill="#f7f7f9"/>
      <path id="Path_38136" data-name="Path 38136" d="M305.9,317.3l-1.8-2.3v-1.2l-1.1-1.3h0l2.7-4.6.9-2.3h0l-3.1-2.6-3.9-6.3-6.5-3.3H292l-.4-2.4-2.7-3.3-4.2-1-2.1-1.1-2.8-4.6-1.8-.3-2.7,2.6-.7.1-2.7-4.8-1.7-3.2-2.6-1.1-1.5-2.3-1.4-1.7-2.3-1.6-6.1,1.6-2.3-.6h-.4l-.1.7-1.4,3.6-2.4,3h0l2.3-3,1.3-3.3h.4l2.5.6,6-1.6,1.8,1.2,1.4,1.6,1.7,2.5,2.5,1.1,1.5,2.9,3.1,5.4,1.7-.2,2.6-2.5.9.1,2.7,4.4,2.4,1.3,4.1,1,2.3,2.8.5,2.9h1.7l6.1,3,3.8,6.2,2.7,2.3-.6,1.5-3.1,5.1,1.3,1.6v1.2l2,2.6,3,3a31.011,31.011,0,0,0-2.9,5l.9.4c-.3.6-.6,1.3-.9,1.9a10.929,10.929,0,0,1-.8,1.5l-.9-.5h0c-3.6,6.1-9.1,9-16.7,8.9h-.2c-2.8,0-5.7-.1-8.6-.3a8.955,8.955,0,0,1-4-.8h0l-.5.9h0a9.657,9.657,0,0,0,4.4.9c2.9.2,5.8.2,8.6.3h.4c7.9,0,13.6-3.1,17.3-9.4.6-1.1,1.2-2.2,1.7-3.3a21.409,21.409,0,0,1,3-5.1l.3-.4h0Z" fill="#e0e0e4"/>
      <path id="Path_38137" data-name="Path 38137" d="M248.2,324.3l-1.7-3.8v-4.9l.6-1.5h0l-.6,1.5v4.9l1.7,3.8,3.9,5.7.6.4-.6-.4Z" fill="#e0e0e4"/>
      <path id="Path_38138" data-name="Path 38138" d="M269.3,334.8A20.163,20.163,0,0,1,274,337c-5.3-3.2-11.1-3.7-16.8-4.3l-1.4-.1h0c2,.2,4.1.4,6.1.7.2,0,.4.1.6.1l-.1,1c.6.1,1.1.2,1.7.3l.2-1c1.2.2,2.3.5,3.5.8l-.3.9a8.8,8.8,0,0,1,1.5.5Z" fill="#e0e0e4"/>
      <path id="Path_38139" data-name="Path 38139" d="M249.4,310.8l-1.1-5.2-.4-4,1-1.3-1.1-3.4,1-3.5.4-2.6.7-1.5-.2-4-.3-2.9,1.1-2.6-.5-1.1.5,1.1-1.1,2.6.3,2.9.2,4-.7,1.5-.4,2.6-1,3.5,1.1,3.4-1,1.3.4,4,1.1,5.2-.7,2.8h0Z" fill="#e0e0e4"/>
      <line id="Line_1950" data-name="Line 1950" transform="translate(313.2 316)" fill="none" stroke="#f7f7f9" stroke-linecap="round" stroke-linejoin="round" stroke-width="0"/>
      <path id="Path_38140" data-name="Path 38140" d="M312.8,315.7c-.1.2-.2.3-.3.5h0l.8.6a2.092,2.092,0,0,1,.4-.6l-.4-.3Z" fill="#e0e0e4"/>
      <path id="Path_38141" data-name="Path 38141" d="M314.8,312.3h-.2v1.5l.9-.8,1-.7h-1.7Z" fill="#e0e0e4"/>
      <path id="Path_38142" data-name="Path 38142" d="M264.9,353.6a11.175,11.175,0,0,1,.9-4.4c1.4-3.6-.1-6-2.8-8.5a35.364,35.364,0,0,0-4.4-3.2,24.831,24.831,0,0,1-5.5-4.3h-1l-.1-.6a.6.6,0,0,0-.1-.4l-.2-.2-.4-.4-2.6-2.7,2.3,1.4-3.8-5.5-1.9-4.2v-5.3l.8-2,1.6-.5.5-2-1.1-5.1-.4-4.4.9-1.2-1-3.2,1.1-3.8.4-2.8.7-1.3-.2-3.7-.4-3.2,1.1-2.5-1.1-2.8,2.7-3.4,1.3-3.3.3-1.7,1.8-1.1.4-1.3,3.5-4.5,2.6-4.9,1.4-1.9,1.2.1.1-1.8v-2.2l4.7-5.8h2.7l.6-.6-.2-2.1,2.5-1.3,2.4-2.8,2.1-1.1,1.9-.3.1-1.3,6.2-3.5.7.4,1.3-2.1,3.6-1.6,1.5.1.9-1.3-.8-8.3v-3.1l-.2-1.4-2.5-6v-1.5l-4.7-.9-1.8.9v.2l-.7.6.5,3.4.2,2-.7,4.1-2.9,3.1-1.5,3.9-5.6,3.5-.8,2.3-2.6,4.2-2.8-1-1.1.5-2.1,3.1-2.1-.9h-.8l-3,1-5.5-3.3-7.3-1.9-11.3,1.4,1.2-3.2,4-4.6,1.8-4.2-1.1-2.1.9-2.6,2.3-1.5,1.5-2,1-3.3-.9-2.5-6.4-6.3-7.4-1-5.8-3-5-4.9h-3l-4.5-2.6-6.9-1.5-2.2-3.2-3-2.9h-2.4l-8.5-8.2-2.2-4.9-3-.8-1.9-2.7v.1l-3.1-2.2-12.2-.7-2,2.3.7,1.6-1.3,2.8-.5,3.3-2.2,1.8-2.7-10-6,.7-2.6-1-5.1,1-3.8-2.4-2.8,1.1-4.8,5-3.9,5,2.1,3.7-3.2,13.9-7,4-6.5,2.9c-.4.4-2.6,2.7-1.6,3.8a15.165,15.165,0,0,1,2.3,4.8v.1l.2,6.2,1.4,2.7.8,4.2-2,1.3-.4,1.6,1.1,2.5,1.8,5.2-3.4,3.4-3.8,3.6-2.9,7.9-2.4,4.1-2.6,16.4,2.4,3.9-.5,7.1-1.2,3.2-1,4.9-3.1,2.7a10.866,10.866,0,0,0-.4,2.2c-.2,1,1.1,6.1,1.9,9.1l6.3,11.8c0,.1,2,2.8,4.1,11,2.2,8.3.3,12.5.2,12.7l-.2.3h-.3a3.607,3.607,0,0,0-3,3,36.4,36.4,0,0,0-.7,7.4v.1l-2,3.8c1.1.9,2.3,3.6,3.1,5.7H265a3.21,3.21,0,0,1-.1-1.4Zm-70.4-74.8c-.2.2-.5.3-.7.5l-.2.2-.3-.1a15.952,15.952,0,0,1-2.3-1l-.8-.3.6-.5a5.67,5.67,0,0,1,1.3-.8,2.479,2.479,0,0,1,1.7,0,3.515,3.515,0,0,1,.9.7l.3.3.4.4Z" fill="#f7f7f9"/>
      <path id="Path_38143" data-name="Path 38143" d="M253.6,332.4h.2l-.7-.5.2.2Z" fill="#f7f7f9"/>
      <path id="Path_38144" data-name="Path 38144" d="M262.5,333.3c-.2,0-.4-.1-.6-.1-2-.3-4.1-.5-6.1-.7h0l-3.1-2.2-.6-.4-3.9-5.6-1.8-3.9v-4.9l.6-1.5h0l1.7-.6h0l.6-2.7-1.1-5.3-.3-4,.9-1.3-1.1-3.3,1.1-3.5.4-2.6.7-1.5-.2-3.9-.3-2.9,1.1-2.6-.5-1.1-.6-1.5h0l2.4-3,1.4-3.6.1-.7.1-.8h0l1.8-1.1h0l.4-1.4h0l3.5-4.4,2.6-4.9,1-1.4,1.7.1h0l.1-2.8v-1.9h0l4.2-5.1h2.6l1.3-1.1h0l-.2-2h0l2-1,2.4-2.8,1.8-1,2.6-.4h0l.1-1.6h0l5.2-3,1,.6,1.6-2.7,3.1-1.3,1.8.1,1.5-2.1h0l-.9-8.6v-3.1l-.2-1.6-2.5-5.8v-2.2l-5.9-1.1-2.6,1.2v.2h0l-.8.7-.1.1h0l.5,4,.1,1.8-.6,3.7h0l-2.8,2.9h0l-1.5,3.9h0l-5.7,3.5h0l-.8,2.5h0l-2.2,3.5-2.4-.9-1.8.8-1.8,2.7-1.4-.6h-1.2l-2.8.9-5.1-3.1-7.6-2-9.9,1.2.5-1.4h0l4-4.6h0l2.1-4.9-1.1-2.1.7-1.9h0l2.1-1.3,1.7-2.2h0l1.3-3.8-1.1-3-6.8-6.6-7.5-1-5.5-2.8-5.2-5.1h-3.1l-4.4-2.5-6.7-1.5-2-2.9-3.4-3.3h-2.4l-8-7.7-2.3-5.3-3.1-.8-2.1-3h0l1.2-3.3h0l-.9-.3-1.2,3.3h0l-2.2-1.6-12.9-.8-2.8,3.1h0l.8,1.8h0l-1.1,2.5-.5,3.1-.7.6-2.6-9.3-6.6.8-2.7-1-5,1-3.9-2.5-3.4,1.3-5.1,5.2-5,6.5-1.4,1.8-.4.5.9-.6,2.3-1.5h0l1.6,2.8-3,13.1h0l-6.5,3.7-6.5,2.9-.1.1h0c-.1.1-3.5,3.3-1.8,5.2a11.939,11.939,0,0,1,2.1,4.4l.2,6.3,1.5,2.7.6,3.5-1.6,1-.2.2h0l-.6,2.3,1.3,2.8,1.6,4.5-2.9,2.9-4,3.7-2.9,8-2.4,4.1-2.8,17,2.4,3.9-.5,6.5-1.2,3.2-.9,4.7-3.1,2.6v.2a17.761,17.761,0,0,0-.5,2.5c-.3,1.5,1.7,8.8,1.9,9.6l6.4,12s1.9,2.7,4,10.7c1.8,6.8.7,10.8.4,11.8h0a5.076,5.076,0,0,0-1.8.9,4.556,4.556,0,0,0-1.7,2.9,37.09,37.09,0,0,0-.7,7.4l-2.1,4-.4.7h.8c.5.2,1.6,2.3,2.7,5h1.1c-.8-2.1-2-4.8-3.1-5.7l2-3.8v-.1a45.251,45.251,0,0,1,.7-7.4,3.607,3.607,0,0,1,3-3h.3l.1-.2c.1-.2,2-4.4-.2-12.7-2.2-8.2-4.1-10.9-4.1-11l-6.3-11.8c-.8-3-2.1-8.2-1.9-9.1.2-1.1.4-1.9.4-2.2l3.1-2.7,1-4.9,1.2-3.2.5-7.1-2.4-3.9,2.6-16.4,2.4-4.1,2.9-7.9,3.8-3.6,3.4-3.4-1.8-5.2-1.1-2.5.4-1.6,2-1.3-.8-4.2-1.4-2.7-.2-6.2v-.1a13.289,13.289,0,0,0-2.3-4.8c-1-1.2,1.2-3.5,1.6-3.8l6.5-2.9,7-4,3.2-13.9-2.1-3.7,3.9-5,4.8-5,2.8-1.1,3.8,2.4,5.1-1,2.6,1,6-.7,2.7,10,2.2-1.8.5-3.3,1.3-2.8-.7-1.6,2-2.3,12.2.7,3.1,2.2v-.1l1.9,2.7,3,.8,2.2,4.9,8.5,8.2h2.4l3,2.9,2.2,3.2,6.9,1.5,4.5,2.6h3l5,4.9,5.8,3,7.4,1,6.4,6.3.9,2.5-1,3.3-1.5,2L241,217l-.9,2.6,1.1,2.1-1.8,4.2-4,4.6-1.2,3.2,11.3-1.4,7.3,1.9,5.5,3.3,3-1h.8l2.1.9,2.1-3.1,1.1-.5,2.8,1,2.6-4.2.8-2.3,5.6-3.5,1.5-3.9,2.9-3.1.7-4.1-.2-2-.5-3.4.7-.6v-.2l1.8-.9,4.7.9V209l2.5,6,.2,1.4v3.1l.8,8.3-.9,1.3-1.5-.1-3.6,1.6-1.3,2.1-.7-.4-6.2,3.5-.1,1.3-1.9.3-2.1,1.1-2.4,2.8-2.5,1.3.2,2.1-.6.6H268l-4.7,5.8v2.2l-.1,1.8L262,255l-1.4,1.9-2.6,4.9-3.5,4.5-.4,1.3-1.8,1.1-.3,1.7-1.3,3.3-2.7,3.4,1.1,2.8-1.1,2.5.4,3.2.2,3.7-.7,1.3-.4,2.8-1.1,3.8,1,3.2-.9,1.2.4,4.4,1.1,5.1-.5,2-1.6.5-.8,2v5.3l1.9,4.2,3.8,5.5-2.3-1.4,2.6,2.7.4.4.2.2a.6.6,0,0,0,.1.4l.1.6h1a28.183,28.183,0,0,0,5.5,4.3,27.449,27.449,0,0,1,4.4,3.2c2.7,2.5,4.2,4.9,2.8,8.5a16.4,16.4,0,0,0-.9,4.4,3.329,3.329,0,0,0,.1,1.4h1a5.281,5.281,0,0,1-.1-1.3,11.5,11.5,0,0,1,.8-4.1c1.7-4.4-.6-7.3-3.1-9.6a34.525,34.525,0,0,0-4.5-3.3,24.832,24.832,0,0,1-4.5-3.3,17.842,17.842,0,0,0,2.3.2c1.6.2,3.3.3,4.9.5a1.267,1.267,0,0,1,.6.1h0Zm-9.4-1.4.7.5h-.2l-.1-.1-.2-.2C253.2,332.1,253.2,332,253.1,331.9Z" fill="#e0e0e4"/>
      <path id="Path_38145" data-name="Path 38145" d="M194.7,277.5a1.6,1.6,0,0,0-.9-.7,4.844,4.844,0,0,0-1.7,0,5.67,5.67,0,0,0-1.3.8l-.6.5.8.3a22.878,22.878,0,0,1,2.3,1l.3.1.2-.2c.2-.2.5-.3.7-.5l.9-.6-.4-.4C194.9,277.6,194.8,277.6,194.7,277.5Zm-1.2.2c.1.1.3.2.4.3-.1.1-.3.2-.4.3-.4-.2-.8-.3-1.2-.5a.349.349,0,0,0,.2-.1A1.7,1.7,0,0,1,193.5,277.7Z" fill="#e0e0e4"/>
      <path id="Path_38146" data-name="Path 38146" d="M89.1,179.6c2.9-10.8,3-19.9.4-28.5l-.9.3h-.1a45.558,45.558,0,0,1,1.4,6.4c.2,1.3.3,2.5.4,3.8,0,.9.1,1.7.1,2.6a36.013,36.013,0,0,1-.4,5.6c0,.3-.1.6-.1.9-.3,2.1-.7,4.3-1.2,6.5-.2.7-.3,1.3-.5,2h0Z" fill="#e0e0e4"/>
      <path id="Path_38147" data-name="Path 38147" d="M420.5,171.3v.1l-.1.9h.2v-.9h0Z" fill="#e0e0e4"/>
      <path id="Path_38148" data-name="Path 38148" d="M274.1,337h0a26.171,26.171,0,0,0-4.8-2.2l-.3.9h0a21.1,21.1,0,0,1,4.6,2.1h0Z" fill="#e0e0e4"/>
      <path id="Path_38149" data-name="Path 38149" d="M267.7,334.4a35.9,35.9,0,0,0-3.5-.8l-.2,1h0c1.1.2,2.3.5,3.4.8v-.1Z" fill="#e0e0e4"/>
      <path id="Path_38150" data-name="Path 38150" d="M305.2,326c-.3.6-.5,1.2-.8,1.8a10,10,0,0,1-.8,1.4h0l.9.5c.3-.5.5-1,.8-1.5.3-.6.6-1.3.9-1.9l-.9-.4h0Z" fill="#e0e0e4"/>
    </g>
    <g id="Group_3205" data-name="Group 3205" transform="translate(1342.786 2773.109)">
      <circle id="Ellipse_966" data-name="Ellipse 966" cx="5.178" cy="5.178" r="5.178" transform="translate(15.534 15.534)" fill="#87cd00"/>
      <circle id="Ellipse_977" data-name="Ellipse 977" cx="5" cy="5" r="5" transform="translate(15.534 15.534)" fill="none" stroke="#87cd00" stroke-width="2">
          <animate accumulate="none" additive="replace" attributeName="r" begin="0s" calcMode="linear" dur="2s" fill="remove" from="5" repeatCount="indefinite" restart="always" to="15"/>
          <animate accumulate="none" additive="replace" attributeName="opacity" begin="0s" calcMode="linear" dur="2s" fill="remove" from="1" repeatCount="indefinite" restart="always" to="0"/>
      </circle>
    </g>
    <g id="Rectangle_7683" data-name="Rectangle 7683" transform="translate(975 2621)" fill="none" stroke="#e0e0e4" stroke-width="1">
      <rect width="586" height="355" stroke="none"/>
      <rect x="0.5" y="0.5" width="585" height="354" fill="none"/>
    </g>
    <g id="Group_4136" data-name="Group 4136" transform="translate(-44 2132)">
      <g transform="matrix(1, 0, 0, 1, 1019, 489)" filter="url(#Rectangle_8777)">
        <rect id="Rectangle_8777-2" data-name="Rectangle 8777" width="216" height="55" rx="4" transform="translate(280 87)" fill="#fff"/>
      </g>
      <g id="Group_4127" data-name="Group 4127" transform="translate(16 32)">
        <g id="Group_3034" data-name="Group 3034" transform="translate(90 194)">
          <path id="São_Paulo_BR" data-name="São Paulo, BR" d="M5.2.216c3.15,0,4.806-1.728,4.806-4.086,0-1.98-1.17-3.168-3.186-3.528L5.508-7.632C4.284-7.848,3.78-8.226,3.78-9.09c0-.99.612-1.494,1.818-1.494A3.593,3.593,0,0,1,8.334-9.4l1.53-1.71A5.484,5.484,0,0,0,5.58-12.78c-2.844,0-4.518,1.4-4.518,3.816a3.41,3.41,0,0,0,3.2,3.6l1.314.216c1.224.2,1.692.612,1.692,1.494,0,1.08-.7,1.674-1.98,1.674A4.259,4.259,0,0,1,2.124-3.456L.558-1.728A5.758,5.758,0,0,0,5.2.216ZM17.424-10.656a2.4,2.4,0,0,0,2.052-1.152l-.936-1.224a1.55,1.55,0,0,1-1.062.45,3.7,3.7,0,0,1-1.4-.4,3.229,3.229,0,0,0-1.386-.36,2.4,2.4,0,0,0-2.052,1.152l.936,1.224a1.55,1.55,0,0,1,1.062-.45,3.7,3.7,0,0,1,1.4.4A3.229,3.229,0,0,0,17.424-10.656ZM21.1,0V-1.926H20.07V-5.994c0-2.34-1.512-3.51-4.05-3.51-2.07,0-3.42.774-4.032,1.818l1.458,1.3a2.6,2.6,0,0,1,2.268-1.17c1.224,0,1.692.576,1.692,1.674v.468H15.912c-2.718,0-4.176.918-4.176,2.862A2.68,2.68,0,0,0,14.724.216,2.66,2.66,0,0,0,17.55-1.638h.09A1.752,1.752,0,0,0,19.566,0ZM15.732-1.53c-.846,0-1.386-.342-1.386-.99v-.36c0-.72.576-1.1,1.638-1.1h1.422v1.116C17.406-2,16.668-1.53,15.732-1.53ZM27,.216c2.9,0,4.662-1.854,4.662-4.86S29.9-9.5,27-9.5s-4.662,1.854-4.662,4.86S24.1.216,27,.216Zm0-1.98c-1.188,0-1.908-.774-1.908-2.142V-5.382c0-1.368.72-2.142,1.908-2.142s1.908.774,1.908,2.142v1.476C28.908-2.538,28.188-1.764,27-1.764ZM47.286,0V-4.572h2.142c2.466,0,3.852-1.566,3.852-4s-1.386-4-3.852-4h-4.86V0Zm0-10.386h1.458c1.26,0,1.692.45,1.692,1.548v.54c0,1.1-.432,1.548-1.692,1.548H47.286ZM64.3,0V-1.926H63.27V-5.994c0-2.34-1.512-3.51-4.05-3.51-2.07,0-3.42.774-4.032,1.818l1.458,1.3a2.6,2.6,0,0,1,2.268-1.17c1.224,0,1.692.576,1.692,1.674v.468H59.112c-2.718,0-4.176.918-4.176,2.862A2.68,2.68,0,0,0,57.924.216,2.66,2.66,0,0,0,60.75-1.638h.09A1.752,1.752,0,0,0,62.766,0ZM58.932-1.53c-.846,0-1.386-.342-1.386-.99v-.36c0-.72.576-1.1,1.638-1.1h1.422v1.116C60.606-2,59.868-1.53,58.932-1.53ZM71.766,0H74.43V-9.288H71.766v6.1a1.458,1.458,0,0,1-1.638,1.35c-1.044,0-1.566-.63-1.566-1.8V-9.288H65.9v6.012c0,2.25,1.242,3.492,3.024,3.492a2.784,2.784,0,0,0,2.736-1.908h.108Zm5.058,0h8.352V-2.07H82.332V-13.32H76.824v2.07h2.844v9.18H76.824ZM91.8.216c2.9,0,4.662-1.854,4.662-4.86S94.7-9.5,91.8-9.5s-4.662,1.854-4.662,4.86S88.9.216,91.8.216Zm0-1.98c-1.188,0-1.908-.774-1.908-2.142V-5.382c0-1.368.72-2.142,1.908-2.142s1.908.774,1.908,2.142v1.476C93.708-2.538,92.988-1.764,91.8-1.764Zm8.46,4.482h1.98l2.466-5.85h-3.42ZM120.186,0h4.824c2.376,0,3.8-1.35,3.8-3.456a2.848,2.848,0,0,0-2.448-3.006V-6.57a2.542,2.542,0,0,0,2.052-2.646c0-2.052-1.368-3.348-3.816-3.348h-4.41Zm2.628-1.89V-5.436h1.368c1.278,0,1.872.378,1.872,1.512V-3.4c0,1.152-.594,1.512-1.872,1.512Zm0-5.346v-3.438h1.026c1.26,0,1.818.342,1.818,1.44v.54c0,1.1-.558,1.458-1.818,1.458Zm10.818,2.574h1.242L136.98,0h2.952l-2.466-5.022c1.4-.4,2.214-1.782,2.214-3.546,0-2.43-1.386-4-3.852-4h-4.86V0h2.664Zm0-2.088v-3.636h1.548c1.26,0,1.692.45,1.692,1.548v.54c0,1.1-.432,1.548-1.692,1.548Z" transform="translate(1253 383.999)" fill="#00042b"/>
        </g>
        <g id="Page-1" transform="translate(1299 561)">
          <g id="Material">
            <g id="round_rectangle_brazil">
              <path id="rounded" d="M3.556,0S0,0,0,3.556V17.778c0,3.556,3.556,3.556,3.556,3.556H28.444S32,21.333,32,17.778V3.556C32,0,28.444,0,28.444,0Z" fill="#4eab53" fill-rule="evenodd"/>
              <path id="Rectangle-87" d="M25.867,11,12,19.622l13.867,8.622,13.867-8.622Z" transform="translate(-9.867 -9.044)" fill="#fee94e" fill-rule="evenodd"/>
              <g id="circle" transform="translate(10.667 5.333)">
                <path id="Oval-15-copy-2" d="M5.333,10.667A5.333,5.333,0,1,0,0,5.334a5.333,5.333,0,0,0,5.333,5.333Z" fill="#2b98f0" fill-rule="evenodd"/>
                <g id="stars" transform="translate(0.468 3.352)">
                  <path id="Star-39" d="M8.939,4.169l-.016-.1.109-.106-.15-.022L8.814,3.81l-.067.136-.15.022.109.106-.026.15.134-.071.106.056L8.9,4.25l-.15.022.109.106-.026.15.134-.071.134.071-.026-.15.109-.106-.15-.022-.067-.136-.027.055ZM6.68.343l-.134.07.026-.15-.109-.1.15-.022L6.68,0l.067.136L6.9.158,6.789.264l.026.15Zm-.3,1.524-.134.071.026-.15-.109-.106.15-.022.067-.136.067.136.15.022-.109.106.026.15ZM5,2.933,4.87,3,4.9,2.85l-.109-.106.15-.022L5,2.59l.067.136.15.022-.109.106L5.138,3Zm.457.457-.134.071.026-.15L5.24,3.205l.15-.022.067-.136.067.136.15.022-.109.106.026.15Zm-.6,1.22-.134.071.026-.15-.109-.106.15-.022.067-.136.067.136.15.022-.109.106.026.15Zm4.5-.724-.09.047.017-.1L9.2,3.762l.1-.015.045-.091.045.091.1.015-.072.071.017.1ZM8.128,5.1l-.09.047.017-.1-.072-.071.1-.015.045-.091.045.091.1.015L8.2,5.052l.017.1ZM7.6,5.062l-.134.071.026-.15-.109-.106.15-.022L7.6,4.719l.067.136.15.022L7.7,4.988l.026.15ZM8.662,4.91l.134.071-.026-.15.109-.106L8.729,4.7l-.067-.136L8.6,4.7l-.15.022.109.106-.026.15ZM7.595,6.286l.134.071L7.7,6.207,7.812,6.1l-.15-.022-.067-.136-.067.136-.15.022.109.106-.026.15Zm0-.61.134.071L7.7,5.6l.109-.106-.15-.022-.067-.136-.067.136-.15.022.109.106-.026.15ZM.433,1.1.3,1.175l.026-.15L.215.92.366.9.433.762.5.9.65.92l-.109.106.026.15ZM1.88,2.514l-.09.047.017-.1L1.735,2.39l.1-.015.045-.091.045.091.1.015-.072.071.017.1Zm-.838.876-.134.071.026-.15-.109-.1.15-.022.067-.136.067.136.15.022-.109.106.026.15Zm.914,1.067-.134.071.026-.15-.109-.106.15-.022.067-.136.067.136.15.022-.109.106.026.15ZM.28,3.848l-.134.071.026-.15L.063,3.663l.15-.022L.28,3.5l.067.136.15.022-.109.106.026.15ZM3.023,1.867l-.134.071.026-.15-.109-.106.15-.022.067-.136.067.136.15.022-.109.106.026.15ZM2.642,4.8l-.09.047.017-.1L2.5,4.677l.1-.015.045-.091.045.091.1.015-.072.071.017.1ZM4.166,3.276l-.09.047.017-.1-.072-.071.1-.015.045-.091.045.091.1.015-.072.071.017.1Zm.61.457-.09.047.017-.1-.072-.07.1-.015L4.776,3.5l.044.1.1.015-.072.071.017.1ZM5.995,4.952,5.905,5l.017-.1L5.85,4.829l.1-.015.045-.091.045.091.1.015L6.067,4.9l.017.1Zm.762.3-.09.047.017-.1-.072-.071.1-.015.045-.091.045.091.1.015L6.829,5.2l.017.1Zm-.457.61-.09.047.017-.1-.072-.071.1-.015L6.3,5.638l.045.091.1.015-.072.071.017.1Z" transform="translate(-0.063)" fill="#fff" fill-rule="evenodd"/>
                </g>
                <g id="text" transform="translate(0.177 3.048)">
                  <path id="Shape" d="M10.559,3.148A12.9,12.9,0,0,0,2.1,0,13.078,13.078,0,0,0,.424.107,5.294,5.294,0,0,0,.138.918,12.278,12.278,0,0,1,2.1.762a12.147,12.147,0,0,1,8.257,3.222A5.3,5.3,0,0,0,10.559,3.148Z" transform="translate(-0.138)" fill="#fff" fill-rule="evenodd"/>
                  <path id="Shape-2" data-name="Shape" d="M2.386,1.557a.271.271,0,0,0,.19-.325c-.02-.164-.138-.285-.263-.269a.271.271,0,0,0-.19.325c.02.164.138.285.263.269m-.014-.11c.074-.009.123-.1.11-.2s-.083-.18-.156-.17a.167.167,0,0,0-.11.2c.013.1.083.18.156.17" transform="translate(-1.767 -0.79)" fill="#009b3a" fill-rule="evenodd"/>
                  <path id="P" d="M5.991,1.171l-.154.011.014.193-.094.006-.03-.52.289-.02a.165.165,0,0,1,.081.311.489.489,0,0,1,.071.2l-.09.017a.348.348,0,0,0-.087-.2ZM5.83,1.085l.2-.013A.067.067,0,0,0,6.02.938l-.2.013Z" transform="translate(-4.733 -0.691)" fill="#009b3a" fill-rule="evenodd"/>
                  <path id="Shape-3" data-name="Shape" d="M9.462,1.208H9.7A.215.215,0,0,0,9.915.987V.916A.21.21,0,0,0,9.848.767a.22.22,0,0,0-.155-.06H9.454l.009.5Zm.093-.094h.138a.136.136,0,0,0,.135-.14V.932A.136.136,0,0,0,9.687.8H9.549l.006.312Z" transform="translate(-7.797 -0.582)" fill="#009b3a" fill-rule="evenodd"/>
                  <path id="Shape-4" data-name="Shape" d="M13.13,1.193l.457.016V1.117l-.37-.013V.976l.29.01V.9l-.29-.01v-.1L13.58.8V.708L13.148.7l-.018.5Z" transform="translate(-10.821 -0.573)" fill="#009b3a" fill-rule="evenodd"/>
                  <path id="Shape-5" data-name="Shape" d="M16.754,1.351l.087.007.03-.339.071.348.079.007.132-.33-.03.339.087.007L17.254.9,17.127.885,17,1.215,16.925.867,16.8.857l-.044.494Z" transform="translate(-13.8 -0.704)" fill="#009b3a" fill-rule="evenodd"/>
                  <path id="Shape-6" data-name="Shape" d="M22.673,2.254l.375.063.015-.084-.29-.049.02-.112.236.04.015-.084-.236-.04.014-.077.281.047.015-.084-.366-.062-.077.44Z" transform="translate(-18.667 -1.491)" fill="#009b3a" fill-rule="evenodd"/>
                  <path id="Shape-7" data-name="Shape" d="M28.188,3.442l.047-.178.2.05a.16.16,0,0,0,.194-.112.156.156,0,0,0-.115-.19l-.281-.071L28.1,3.42l.091.023Zm.071-.268.19.048a.065.065,0,0,0,.08-.046.064.064,0,0,0-.047-.078l-.19-.048-.033.124Z" transform="translate(-23.127 -2.418)" fill="#009b3a" fill-rule="evenodd"/>
                  <path id="P-2" data-name="P" d="M31.619,4.163l-.193-.06-.057.176-.09-.028.16-.471.277.085a.155.155,0,0,1,.1.2.158.158,0,0,1-.115.1c.036.058,0,.16-.014.212L31.6,4.351a.273.273,0,0,0,.011-.19Zm-.165-.147.187.058a.066.066,0,0,0,.082-.042.064.064,0,0,0-.043-.08l-.187-.058-.039.122Z" transform="translate(-25.743 -3.108)" fill="#009b3a" fill-rule="evenodd"/>
                  <path id="Shape-8" data-name="Shape" d="M35.291,5.67a.259.259,0,0,0,.312-.177.249.249,0,0,0-.116-.334.259.259,0,0,0-.312.177.249.249,0,0,0,.116.334m.036-.095a.159.159,0,0,0,.187-.115.154.154,0,0,0-.064-.207.159.159,0,0,0-.187.115.154.154,0,0,0,.064.207" transform="translate(-28.929 -4.232)" fill="#009b3a" fill-rule="evenodd"/>
                  <path id="Shape-9" data-name="Shape" d="M38.927,6.72a.131.131,0,0,0-.064-.123.177.177,0,0,0-.158.3.133.133,0,0,0,.144-.023h0l-.1-.051.041-.08.2.1h0a.232.232,0,1,1-.077-.348.235.235,0,0,1,.107.26Z" transform="translate(-31.717 -5.332)" fill="#009b3a" fill-rule="evenodd"/>
                  <path id="P-3" data-name="P" d="M42.106,8.378l-.181-.088-.084.165-.084-.041.233-.441.26.127a.154.154,0,0,1,.072.209.16.16,0,0,1-.13.086c.026.062-.023.158-.048.208l-.078-.038a.275.275,0,0,0,.041-.186Zm-.139-.171.175.085a.066.066,0,0,0,.088-.029.063.063,0,0,0-.029-.086l-.175-.085-.058.114Z" transform="translate(-34.357 -6.555)" fill="#009b3a" fill-rule="evenodd"/>
                  <path id="Shape-10" data-name="Shape" d="M44.989,10.062l.4.22.046-.08-.322-.178.064-.111.253.14.043-.074-.253-.14.05-.086.3.168.046-.08-.379-.209-.25.432Z" transform="translate(-37.016 -7.918)" fill="#009b3a" fill-rule="evenodd"/>
                  <path id="Shape-11" data-name="Shape" d="M48.571,12.191c-.027.042,0,.088.062.127s.1.037.12.01c.056-.085-.266-.209-.167-.358.085-.128.231-.028.286.006s.144.123.075.225l-.093-.058c.029-.045,0-.088-.052-.118s-.086-.043-.114,0c-.047.069.267.2.171.348-.071.109-.195.061-.278.01s-.175-.147-.107-.252h0l.1.06" transform="translate(-39.856 -9.789)" fill="#009b3a" fill-rule="evenodd"/>
                  <path id="Shape-12" data-name="Shape" d="M51.577,14.231c.059.041.1.042.12.016.06-.082-.254-.223-.147-.366.092-.123.233-.016.286.021a.16.16,0,0,1,.063.229l-.09-.063c.032-.043,0-.088-.045-.121s-.084-.047-.114-.005c-.051.067.256.213.152.356-.077.1-.2.051-.278,0s-.167-.156-.093-.257l.093.065c-.029.04,0,.088.055.13Z" transform="translate(-42.289 -11.366)" fill="#009b3a" fill-rule="evenodd"/>
                  <path id="Shape-13" data-name="Shape" d="M54.29,16.455a.246.246,0,0,0,.337-.055.233.233,0,0,0-.021-.333.246.246,0,0,0-.337.055.233.233,0,0,0,.021.333m.059-.072a.151.151,0,0,0,.2-.04.143.143,0,0,0-.006-.2.151.151,0,0,0-.2.04.143.143,0,0,0,.006.2" transform="translate(-44.597 -13.174)" fill="#009b3a" fill-rule="evenodd"/>
                </g>
              </g>
            </g>
          </g>
        </g>
      </g>
    </g>
  </g>
</svg>